<mxfile host="app.diagrams.net" modified="2023-10-26T18:20:25.516Z" agent="Mozilla/5.0 (Windows NT 10.0; Win64; x64) AppleWebKit/537.36 (KHTML, like Gecko) Chrome/118.0.0.0 Safari/537.36 Edg/118.0.2088.69" etag="dkTWxCZMpuuj4dIPmYCX" version="22.0.8" type="google">
  <diagram name="Page-1" id="IuOiCkXExgfwfRk0wCWT">
    <mxGraphModel dx="1242" dy="569" grid="1" gridSize="10" guides="1" tooltips="1" connect="1" arrows="1" fold="1" page="1" pageScale="1" pageWidth="850" pageHeight="1100" math="0" shadow="0">
      <root>
        <mxCell id="0" />
        <mxCell id="1" parent="0" />
        <mxCell id="rFgON5gm92gmT7RYXm9H-3" value="" style="edgeStyle=orthogonalEdgeStyle;rounded=0;orthogonalLoop=1;jettySize=auto;html=1;" edge="1" parent="1" source="rFgON5gm92gmT7RYXm9H-1">
          <mxGeometry relative="1" as="geometry">
            <mxPoint x="450" y="190" as="targetPoint" />
          </mxGeometry>
        </mxCell>
        <mxCell id="rFgON5gm92gmT7RYXm9H-1" value="start" style="ellipse;whiteSpace=wrap;html=1;" vertex="1" parent="1">
          <mxGeometry x="390" y="100" width="120" height="50" as="geometry" />
        </mxCell>
        <mxCell id="rFgON5gm92gmT7RYXm9H-9" value="" style="edgeStyle=orthogonalEdgeStyle;rounded=0;orthogonalLoop=1;jettySize=auto;html=1;" edge="1" parent="1" source="rFgON5gm92gmT7RYXm9H-6" target="rFgON5gm92gmT7RYXm9H-8">
          <mxGeometry relative="1" as="geometry" />
        </mxCell>
        <mxCell id="rFgON5gm92gmT7RYXm9H-6" value="user" style="rounded=0;whiteSpace=wrap;html=1;" vertex="1" parent="1">
          <mxGeometry x="390" y="180" width="120" height="50" as="geometry" />
        </mxCell>
        <mxCell id="rFgON5gm92gmT7RYXm9H-11" value="" style="edgeStyle=orthogonalEdgeStyle;rounded=0;orthogonalLoop=1;jettySize=auto;html=1;" edge="1" parent="1" source="rFgON5gm92gmT7RYXm9H-8" target="rFgON5gm92gmT7RYXm9H-10">
          <mxGeometry relative="1" as="geometry" />
        </mxCell>
        <mxCell id="rFgON5gm92gmT7RYXm9H-13" value="no" style="edgeLabel;html=1;align=center;verticalAlign=middle;resizable=0;points=[];" vertex="1" connectable="0" parent="rFgON5gm92gmT7RYXm9H-11">
          <mxGeometry x="-0.3067" y="4" relative="1" as="geometry">
            <mxPoint as="offset" />
          </mxGeometry>
        </mxCell>
        <mxCell id="rFgON5gm92gmT7RYXm9H-15" value="" style="edgeStyle=orthogonalEdgeStyle;rounded=0;orthogonalLoop=1;jettySize=auto;html=1;" edge="1" parent="1" source="rFgON5gm92gmT7RYXm9H-8" target="rFgON5gm92gmT7RYXm9H-14">
          <mxGeometry relative="1" as="geometry" />
        </mxCell>
        <mxCell id="rFgON5gm92gmT7RYXm9H-8" value="login" style="rhombus;whiteSpace=wrap;html=1;rounded=0;" vertex="1" parent="1">
          <mxGeometry x="410" y="270" width="80" height="80" as="geometry" />
        </mxCell>
        <mxCell id="rFgON5gm92gmT7RYXm9H-10" value="register" style="whiteSpace=wrap;html=1;rounded=0;" vertex="1" parent="1">
          <mxGeometry x="550" y="280" width="120" height="60" as="geometry" />
        </mxCell>
        <mxCell id="rFgON5gm92gmT7RYXm9H-12" value="" style="endArrow=classic;startArrow=classic;html=1;rounded=0;exitX=0.627;exitY=-0.047;exitDx=0;exitDy=0;exitPerimeter=0;" edge="1" parent="1" source="rFgON5gm92gmT7RYXm9H-10">
          <mxGeometry width="50" height="50" relative="1" as="geometry">
            <mxPoint x="810" y="220" as="sourcePoint" />
            <mxPoint x="450" y="250" as="targetPoint" />
            <Array as="points">
              <mxPoint x="630" y="250" />
            </Array>
          </mxGeometry>
        </mxCell>
        <mxCell id="rFgON5gm92gmT7RYXm9H-17" value="" style="edgeStyle=orthogonalEdgeStyle;rounded=0;orthogonalLoop=1;jettySize=auto;html=1;" edge="1" parent="1" source="rFgON5gm92gmT7RYXm9H-14" target="rFgON5gm92gmT7RYXm9H-16">
          <mxGeometry relative="1" as="geometry" />
        </mxCell>
        <mxCell id="rFgON5gm92gmT7RYXm9H-14" value="search product" style="whiteSpace=wrap;html=1;rounded=0;" vertex="1" parent="1">
          <mxGeometry x="470" y="440" width="120" height="60" as="geometry" />
        </mxCell>
        <mxCell id="rFgON5gm92gmT7RYXm9H-19" value="" style="edgeStyle=orthogonalEdgeStyle;rounded=0;orthogonalLoop=1;jettySize=auto;html=1;" edge="1" parent="1" source="rFgON5gm92gmT7RYXm9H-16">
          <mxGeometry relative="1" as="geometry">
            <mxPoint x="530" y="580" as="targetPoint" />
          </mxGeometry>
        </mxCell>
        <mxCell id="rFgON5gm92gmT7RYXm9H-16" value="view product" style="whiteSpace=wrap;html=1;rounded=0;" vertex="1" parent="1">
          <mxGeometry x="470" y="520" width="120" height="40" as="geometry" />
        </mxCell>
        <mxCell id="rFgON5gm92gmT7RYXm9H-22" value="" style="edgeStyle=orthogonalEdgeStyle;rounded=0;orthogonalLoop=1;jettySize=auto;html=1;" edge="1" parent="1" source="rFgON5gm92gmT7RYXm9H-20" target="rFgON5gm92gmT7RYXm9H-21">
          <mxGeometry relative="1" as="geometry" />
        </mxCell>
        <mxCell id="rFgON5gm92gmT7RYXm9H-36" value="yes" style="edgeLabel;html=1;align=center;verticalAlign=middle;resizable=0;points=[];" vertex="1" connectable="0" parent="rFgON5gm92gmT7RYXm9H-22">
          <mxGeometry x="0.376" y="4" relative="1" as="geometry">
            <mxPoint as="offset" />
          </mxGeometry>
        </mxCell>
        <mxCell id="rFgON5gm92gmT7RYXm9H-20" value="make&lt;br&gt;payment" style="rhombus;whiteSpace=wrap;html=1;" vertex="1" parent="1">
          <mxGeometry x="490" y="580" width="80" height="70" as="geometry" />
        </mxCell>
        <mxCell id="rFgON5gm92gmT7RYXm9H-24" value="" style="edgeStyle=orthogonalEdgeStyle;rounded=0;orthogonalLoop=1;jettySize=auto;html=1;" edge="1" parent="1" source="rFgON5gm92gmT7RYXm9H-21" target="rFgON5gm92gmT7RYXm9H-23">
          <mxGeometry relative="1" as="geometry" />
        </mxCell>
        <mxCell id="rFgON5gm92gmT7RYXm9H-28" value="" style="edgeStyle=orthogonalEdgeStyle;rounded=0;orthogonalLoop=1;jettySize=auto;html=1;" edge="1" parent="1" source="rFgON5gm92gmT7RYXm9H-21" target="rFgON5gm92gmT7RYXm9H-27">
          <mxGeometry relative="1" as="geometry" />
        </mxCell>
        <mxCell id="rFgON5gm92gmT7RYXm9H-21" value="payment type" style="whiteSpace=wrap;html=1;" vertex="1" parent="1">
          <mxGeometry x="470" y="680" width="120" height="40" as="geometry" />
        </mxCell>
        <mxCell id="rFgON5gm92gmT7RYXm9H-30" value="" style="edgeStyle=orthogonalEdgeStyle;rounded=0;orthogonalLoop=1;jettySize=auto;html=1;" edge="1" parent="1" source="rFgON5gm92gmT7RYXm9H-23" target="rFgON5gm92gmT7RYXm9H-29">
          <mxGeometry relative="1" as="geometry" />
        </mxCell>
        <mxCell id="rFgON5gm92gmT7RYXm9H-23" value="online payment" style="rounded=1;whiteSpace=wrap;html=1;" vertex="1" parent="1">
          <mxGeometry x="425" y="760" width="120" height="60" as="geometry" />
        </mxCell>
        <mxCell id="rFgON5gm92gmT7RYXm9H-27" value="cash on delivery" style="rounded=1;whiteSpace=wrap;html=1;" vertex="1" parent="1">
          <mxGeometry x="560" y="760" width="120" height="60" as="geometry" />
        </mxCell>
        <mxCell id="rFgON5gm92gmT7RYXm9H-32" value="" style="edgeStyle=orthogonalEdgeStyle;rounded=0;orthogonalLoop=1;jettySize=auto;html=1;" edge="1" parent="1" source="rFgON5gm92gmT7RYXm9H-29" target="rFgON5gm92gmT7RYXm9H-31">
          <mxGeometry relative="1" as="geometry" />
        </mxCell>
        <mxCell id="rFgON5gm92gmT7RYXm9H-29" value="order confirm" style="whiteSpace=wrap;html=1;rounded=1;" vertex="1" parent="1">
          <mxGeometry x="510" y="860" width="120" height="40" as="geometry" />
        </mxCell>
        <mxCell id="rFgON5gm92gmT7RYXm9H-31" value="end" style="ellipse;whiteSpace=wrap;html=1;rounded=1;" vertex="1" parent="1">
          <mxGeometry x="530" y="960" width="80" height="40" as="geometry" />
        </mxCell>
        <mxCell id="rFgON5gm92gmT7RYXm9H-33" value="" style="endArrow=none;html=1;rounded=0;" edge="1" parent="1">
          <mxGeometry width="50" height="50" relative="1" as="geometry">
            <mxPoint x="360" y="884" as="sourcePoint" />
            <mxPoint x="450" y="390" as="targetPoint" />
            <Array as="points">
              <mxPoint x="360" y="390" />
            </Array>
          </mxGeometry>
        </mxCell>
        <mxCell id="rFgON5gm92gmT7RYXm9H-34" value="" style="endArrow=classic;html=1;rounded=0;entryX=0;entryY=0.75;entryDx=0;entryDy=0;" edge="1" parent="1" target="rFgON5gm92gmT7RYXm9H-29">
          <mxGeometry width="50" height="50" relative="1" as="geometry">
            <mxPoint x="360" y="880" as="sourcePoint" />
            <mxPoint x="410" y="830" as="targetPoint" />
          </mxGeometry>
        </mxCell>
      </root>
    </mxGraphModel>
  </diagram>
</mxfile>
